<svg width="400" height="600" viewBox="0 0 400 600" xmlns="http://www.w3.org/2000/svg">
  <!-- Gradiente de fundo -->
  <defs>
    <linearGradient id="skyGradient" x1="0%" y1="0%" x2="0%" y2="100%">
      <stop offset="0%" style="stop-color:#87CEEB;stop-opacity:1" />
      <stop offset="100%" style="stop-color:#E0F6FF;stop-opacity:1" />
    </linearGradient>
    <linearGradient id="buildingGradient" x1="0%" y1="0%" x2="0%" y2="100%">
      <stop offset="0%" style="stop-color:#FF6B35;stop-opacity:0.9" />
      <stop offset="100%" style="stop-color:#D2691E;stop-opacity:0.9" />
    </linearGradient>
    <linearGradient id="shopGradient" x1="0%" y1="0%" x2="0%" y2="100%">
      <stop offset="0%" style="stop-color:#4CAF50;stop-opacity:0.8" />
      <stop offset="100%" style="stop-color:#2E7D32;stop-opacity:0.8" />
    </linearGradient>
  </defs>
  
  <!-- Fundo do céu -->
  <rect width="400" height="600" fill="url(#skyGradient)"/>
  
  <!-- Nuvens -->
  <ellipse cx="80" cy="80" rx="25" ry="15" fill="white" opacity="0.7"/>
  <ellipse cx="95" cy="75" rx="30" ry="18" fill="white" opacity="0.7"/>
  <ellipse cx="110" cy="80" rx="20" ry="12" fill="white" opacity="0.7"/>
  
  <ellipse cx="280" cy="60" rx="20" ry="12" fill="white" opacity="0.6"/>
  <ellipse cx="295" cy="55" rx="25" ry="15" fill="white" opacity="0.6"/>
  
  <!-- Prédios de fundo -->
  <rect x="50" y="200" width="60" height="400" fill="url(#buildingGradient)" opacity="0.6"/>
  <rect x="50" y="180" width="60" height="20" fill="#8B4513" opacity="0.6"/>
  
  <rect x="290" y="150" width="80" height="450" fill="url(#buildingGradient)" opacity="0.5"/>
  <rect x="290" y="130" width="80" height="20" fill="#8B4513" opacity="0.5"/>
  
  <!-- Lojas principais -->
  <!-- Padaria -->
  <rect x="30" y="350" width="100" height="120" fill="url(#shopGradient)"/>
  <rect x="30" y="330" width="100" height="20" fill="#8B4513"/>
  <rect x="45" y="370" width="25" height="35" fill="#8B4513"/>
  <rect x="45" y="375" width="25" height="25" fill="#FFE4B5"/>
  <text x="80" y="390" font-family="Arial" font-size="12" fill="white" font-weight="bold">🍞</text>
  <text x="80" y="420" font-family="Arial" font-size="8" fill="white">PADARIA</text>
  
  <!-- Farmácia -->
  <rect x="150" y="320" width="100" height="150" fill="#2196F3" opacity="0.8"/>
  <rect x="150" y="300" width="100" height="20" fill="#8B4513"/>
  <rect x="165" y="340" width="25" height="35" fill="#8B4513"/>
  <rect x="165" y="345" width="25" height="25" fill="#FFE4B5"/>
  <text x="200" y="390" font-family="Arial" font-size="12" fill="white" font-weight="bold">⚕️</text>
  <text x="190" y="420" font-family="Arial" font-size="8" fill="white">FARMÁCIA</text>
  
  <!-- Mercadinho -->
  <rect x="270" y="380" width="100" height="90" fill="#FF9800" opacity="0.8"/>
  <rect x="270" y="360" width="100" height="20" fill="#8B4513"/>
  <rect x="285" y="400" width="25" height="35" fill="#8B4513"/>
  <rect x="285" y="405" width="25" height="25" fill="#FFE4B5"/>
  <text x="320" y="420" font-family="Arial" font-size="12" fill="white" font-weight="bold">🛒</text>
  <text x="310" y="450" font-family="Arial" font-size="8" fill="white">MERCADO</text>
  
  <!-- Restaurante -->
  <rect x="80" y="480" width="90" height="120" fill="#E91E63" opacity="0.8"/>
  <rect x="80" y="460" width="90" height="20" fill="#8B4513"/>
  <rect x="95" y="500" width="25" height="35" fill="#8B4513"/>
  <rect x="95" y="505" width="25" height="25" fill="#FFE4B5"/>
  <text x="125" y="530" font-family="Arial" font-size="12" fill="white" font-weight="bold">🍽️</text>
  <text x="115" y="560" font-family="Arial" font-size="8" fill="white">RESTAURANTE</text>
  
  <!-- Rua -->
  <rect x="0" y="470" width="400" height="40" fill="#696969" opacity="0.7"/>
  <rect x="0" y="485" width="400" height="4" fill="#FFFF00" opacity="0.8"/>
  
  <!-- Árvores -->
  <circle cx="200" cy="460" r="25" fill="#228B22" opacity="0.7"/>
  <rect x="195" y="460" width="10" height="30" fill="#8B4513" opacity="0.7"/>
  
  <circle cx="350" cy="480" r="20" fill="#228B22" opacity="0.6"/>
  <rect x="345" y="480" width="10" height="25" fill="#8B4513" opacity="0.6"/>
  
  <!-- Elementos decorativos -->
  <!-- Placas de sinalização -->
  <rect x="20" y="280" width="30" height="15" fill="#4CAF50" opacity="0.9"/>
  <text x="35" y="290" font-family="Arial" font-size="6" fill="white" text-anchor="middle">COMÉRCIO</text>
  
  <rect x="350" y="250" width="35" height="15" fill="#FF6B35" opacity="0.9"/>
  <text x="367" y="260" font-family="Arial" font-size="6" fill="white" text-anchor="middle">SERVIÇOS</text>
  
  <!-- Janelas nos prédios -->
  <rect x="60" y="220" width="8" height="12" fill="#FFE4B5" opacity="0.8"/>
  <rect x="75" y="220" width="8" height="12" fill="#FFE4B5" opacity="0.8"/>
  <rect x="90" y="220" width="8" height="12" fill="#FFE4B5" opacity="0.8"/>
  
  <rect x="60" y="250" width="8" height="12" fill="#FFE4B5" opacity="0.8"/>
  <rect x="75" y="250" width="8" height="12" fill="#FFE4B5" opacity="0.8"/>
  <rect x="90" y="250" width="8" height="12" fill="#FFE4B5" opacity="0.8"/>
  
  <rect x="300" y="170" width="10" height="15" fill="#FFE4B5" opacity="0.7"/>
  <rect x="320" y="170" width="10" height="15" fill="#FFE4B5" opacity="0.7"/>
  <rect x="340" y="170" width="10" height="15" fill="#FFE4B5" opacity="0.7"/>
  <rect x="360" y="170" width="10" height="15" fill="#FFE4B5" opacity="0.7"/>
</svg>